<mxfile host="app.diagrams.net" modified="2022-07-05T00:25:11.773Z" agent="5.0 (Windows NT 10.0; Win64; x64) AppleWebKit/537.36 (KHTML, like Gecko) Chrome/103.0.0.0 Safari/537.36" etag="JdRC47RlCQcInTdzjAuI" version="20.0.4" type="github">
  <diagram id="JyKGy5-fQwLXI8wcB-RT" name="Page-1">
    <mxGraphModel dx="819" dy="759" grid="1" gridSize="10" guides="1" tooltips="1" connect="1" arrows="1" fold="1" page="1" pageScale="1" pageWidth="1169" pageHeight="827" math="0" shadow="0">
      <root>
        <mxCell id="0" />
        <mxCell id="1" parent="0" />
        <mxCell id="2E2zh2uSXz6sBKMin4p0-1" value="Kodluyoruz Asansör Simülasyonu&#xa;" style="swimlane;fontStyle=1;align=center;verticalAlign=top;childLayout=stackLayout;horizontal=1;startSize=26;horizontalStack=0;resizeParent=1;resizeParentMax=0;resizeLast=0;collapsible=1;marginBottom=0;" vertex="1" parent="1">
          <mxGeometry x="80" y="40" width="200" height="150" as="geometry" />
        </mxCell>
        <mxCell id="2E2zh2uSXz6sBKMin4p0-2" value="+ capacity : int&#xa;+ floorNumber : int&#xa;+ doorsTime : int&#xa;+ time : time" style="text;strokeColor=none;fillColor=none;align=left;verticalAlign=top;spacingLeft=4;spacingRight=4;overflow=hidden;rotatable=0;points=[[0,0.5],[1,0.5]];portConstraint=eastwest;" vertex="1" parent="2E2zh2uSXz6sBKMin4p0-1">
          <mxGeometry y="26" width="200" height="64" as="geometry" />
        </mxCell>
        <mxCell id="2E2zh2uSXz6sBKMin4p0-3" value="" style="line;strokeWidth=1;fillColor=none;align=left;verticalAlign=middle;spacingTop=-1;spacingLeft=3;spacingRight=3;rotatable=0;labelPosition=right;points=[];portConstraint=eastwest;" vertex="1" parent="2E2zh2uSXz6sBKMin4p0-1">
          <mxGeometry y="90" width="200" height="8" as="geometry" />
        </mxCell>
        <mxCell id="2E2zh2uSXz6sBKMin4p0-4" value="+ whichElevator(TargetFloor): int&#xa;+ getTargetFloor() : int" style="text;strokeColor=none;fillColor=none;align=left;verticalAlign=top;spacingLeft=4;spacingRight=4;overflow=hidden;rotatable=0;points=[[0,0.5],[1,0.5]];portConstraint=eastwest;" vertex="1" parent="2E2zh2uSXz6sBKMin4p0-1">
          <mxGeometry y="98" width="200" height="52" as="geometry" />
        </mxCell>
        <mxCell id="2E2zh2uSXz6sBKMin4p0-9" value="Elevator" style="swimlane;fontStyle=1;align=center;verticalAlign=top;childLayout=stackLayout;horizontal=1;startSize=26;horizontalStack=0;resizeParent=1;resizeParentMax=0;resizeLast=0;collapsible=1;marginBottom=0;" vertex="1" parent="1">
          <mxGeometry x="120" y="240" width="180" height="110" as="geometry" />
        </mxCell>
        <mxCell id="2E2zh2uSXz6sBKMin4p0-10" value="+ capacity : int" style="text;strokeColor=none;fillColor=none;align=left;verticalAlign=top;spacingLeft=4;spacingRight=4;overflow=hidden;rotatable=0;points=[[0,0.5],[1,0.5]];portConstraint=eastwest;" vertex="1" parent="2E2zh2uSXz6sBKMin4p0-9">
          <mxGeometry y="26" width="180" height="26" as="geometry" />
        </mxCell>
        <mxCell id="2E2zh2uSXz6sBKMin4p0-11" value="" style="line;strokeWidth=1;fillColor=none;align=left;verticalAlign=middle;spacingTop=-1;spacingLeft=3;spacingRight=3;rotatable=0;labelPosition=right;points=[];portConstraint=eastwest;" vertex="1" parent="2E2zh2uSXz6sBKMin4p0-9">
          <mxGeometry y="52" width="180" height="8" as="geometry" />
        </mxCell>
        <mxCell id="2E2zh2uSXz6sBKMin4p0-12" value="+ GoUp(FloorNumber)  : bool&#xa;+ GoDown(FloorNumber)  : bool" style="text;strokeColor=none;fillColor=none;align=left;verticalAlign=top;spacingLeft=4;spacingRight=4;overflow=hidden;rotatable=0;points=[[0,0.5],[1,0.5]];portConstraint=eastwest;" vertex="1" parent="2E2zh2uSXz6sBKMin4p0-9">
          <mxGeometry y="60" width="180" height="50" as="geometry" />
        </mxCell>
        <mxCell id="2E2zh2uSXz6sBKMin4p0-34" value="" style="endArrow=none;html=1;rounded=0;" edge="1" parent="2E2zh2uSXz6sBKMin4p0-9">
          <mxGeometry width="50" height="50" relative="1" as="geometry">
            <mxPoint y="140" as="sourcePoint" />
            <mxPoint x="-70" y="80" as="targetPoint" />
            <Array as="points">
              <mxPoint x="-70" y="140" />
            </Array>
          </mxGeometry>
        </mxCell>
        <mxCell id="2E2zh2uSXz6sBKMin4p0-13" value="" style="endArrow=classic;html=1;rounded=0;entryX=0.6;entryY=1.038;entryDx=0;entryDy=0;entryPerimeter=0;" edge="1" parent="1" target="2E2zh2uSXz6sBKMin4p0-4">
          <mxGeometry width="50" height="50" relative="1" as="geometry">
            <mxPoint x="200" y="240" as="sourcePoint" />
            <mxPoint x="250" y="190" as="targetPoint" />
          </mxGeometry>
        </mxCell>
        <mxCell id="2E2zh2uSXz6sBKMin4p0-14" value="1" style="text;html=1;align=center;verticalAlign=middle;resizable=0;points=[];autosize=1;strokeColor=none;fillColor=none;" vertex="1" parent="1">
          <mxGeometry x="175" y="185" width="30" height="30" as="geometry" />
        </mxCell>
        <mxCell id="2E2zh2uSXz6sBKMin4p0-15" value="5" style="text;html=1;align=center;verticalAlign=middle;resizable=0;points=[];autosize=1;strokeColor=none;fillColor=none;" vertex="1" parent="1">
          <mxGeometry x="205" y="215" width="30" height="30" as="geometry" />
        </mxCell>
        <mxCell id="2E2zh2uSXz6sBKMin4p0-16" value="Elevator Door    " style="swimlane;fontStyle=1;align=center;verticalAlign=top;childLayout=stackLayout;horizontal=1;startSize=26;horizontalStack=0;resizeParent=1;resizeParentMax=0;resizeLast=0;collapsible=1;marginBottom=0;" vertex="1" parent="1">
          <mxGeometry x="40" y="400" width="190" height="94" as="geometry" />
        </mxCell>
        <mxCell id="2E2zh2uSXz6sBKMin4p0-18" value="" style="line;strokeWidth=1;fillColor=none;align=left;verticalAlign=middle;spacingTop=-1;spacingLeft=3;spacingRight=3;rotatable=0;labelPosition=right;points=[];portConstraint=eastwest;" vertex="1" parent="2E2zh2uSXz6sBKMin4p0-16">
          <mxGeometry y="26" width="190" height="8" as="geometry" />
        </mxCell>
        <mxCell id="2E2zh2uSXz6sBKMin4p0-19" value="+ OpenDoor(DoorsTime) : bool&#xa;+ CloseDoor(DoorsTime) : bool" style="text;strokeColor=none;fillColor=none;align=left;verticalAlign=top;spacingLeft=4;spacingRight=4;overflow=hidden;rotatable=0;points=[[0,0.5],[1,0.5]];portConstraint=eastwest;" vertex="1" parent="2E2zh2uSXz6sBKMin4p0-16">
          <mxGeometry y="34" width="190" height="60" as="geometry" />
        </mxCell>
        <mxCell id="2E2zh2uSXz6sBKMin4p0-20" value="Floor Indicator Light" style="swimlane;fontStyle=1;align=center;verticalAlign=top;childLayout=stackLayout;horizontal=1;startSize=26;horizontalStack=0;resizeParent=1;resizeParentMax=0;resizeLast=0;collapsible=1;marginBottom=0;" vertex="1" parent="1">
          <mxGeometry x="280" y="400" width="160" height="60" as="geometry" />
        </mxCell>
        <mxCell id="2E2zh2uSXz6sBKMin4p0-22" value="" style="line;strokeWidth=1;fillColor=none;align=left;verticalAlign=middle;spacingTop=-1;spacingLeft=3;spacingRight=3;rotatable=0;labelPosition=right;points=[];portConstraint=eastwest;" vertex="1" parent="2E2zh2uSXz6sBKMin4p0-20">
          <mxGeometry y="26" width="160" height="8" as="geometry" />
        </mxCell>
        <mxCell id="2E2zh2uSXz6sBKMin4p0-23" value="+ ShowFloorNumber() : int" style="text;strokeColor=none;fillColor=none;align=left;verticalAlign=top;spacingLeft=4;spacingRight=4;overflow=hidden;rotatable=0;points=[[0,0.5],[1,0.5]];portConstraint=eastwest;" vertex="1" parent="2E2zh2uSXz6sBKMin4p0-20">
          <mxGeometry y="34" width="160" height="26" as="geometry" />
        </mxCell>
        <mxCell id="2E2zh2uSXz6sBKMin4p0-24" value="Control Panel" style="swimlane;fontStyle=1;align=center;verticalAlign=top;childLayout=stackLayout;horizontal=1;startSize=26;horizontalStack=0;resizeParent=1;resizeParentMax=0;resizeLast=0;collapsible=1;marginBottom=0;" vertex="1" parent="1">
          <mxGeometry x="480" y="400" width="160" height="34" as="geometry" />
        </mxCell>
        <mxCell id="2E2zh2uSXz6sBKMin4p0-26" value="" style="line;strokeWidth=1;fillColor=none;align=left;verticalAlign=middle;spacingTop=-1;spacingLeft=3;spacingRight=3;rotatable=0;labelPosition=right;points=[];portConstraint=eastwest;" vertex="1" parent="2E2zh2uSXz6sBKMin4p0-24">
          <mxGeometry y="26" width="160" height="8" as="geometry" />
        </mxCell>
        <mxCell id="2E2zh2uSXz6sBKMin4p0-28" value="" style="endArrow=none;html=1;rounded=0;" edge="1" parent="1">
          <mxGeometry width="50" height="50" relative="1" as="geometry">
            <mxPoint x="120" y="400" as="sourcePoint" />
            <mxPoint x="560" y="380" as="targetPoint" />
            <Array as="points">
              <mxPoint x="120" y="380" />
            </Array>
          </mxGeometry>
        </mxCell>
        <mxCell id="2E2zh2uSXz6sBKMin4p0-29" value="" style="endArrow=none;html=1;rounded=0;" edge="1" parent="1">
          <mxGeometry width="50" height="50" relative="1" as="geometry">
            <mxPoint x="360" y="400" as="sourcePoint" />
            <mxPoint x="360" y="380" as="targetPoint" />
          </mxGeometry>
        </mxCell>
        <mxCell id="2E2zh2uSXz6sBKMin4p0-30" value="" style="endArrow=none;html=1;rounded=0;" edge="1" parent="1">
          <mxGeometry width="50" height="50" relative="1" as="geometry">
            <mxPoint x="560" y="400" as="sourcePoint" />
            <mxPoint x="560" y="380" as="targetPoint" />
          </mxGeometry>
        </mxCell>
        <mxCell id="2E2zh2uSXz6sBKMin4p0-31" value="1" style="text;html=1;align=center;verticalAlign=middle;resizable=0;points=[];autosize=1;strokeColor=none;fillColor=none;" vertex="1" parent="1">
          <mxGeometry x="95" y="375" width="30" height="30" as="geometry" />
        </mxCell>
        <mxCell id="2E2zh2uSXz6sBKMin4p0-32" value="1" style="text;html=1;align=center;verticalAlign=middle;resizable=0;points=[];autosize=1;strokeColor=none;fillColor=none;" vertex="1" parent="1">
          <mxGeometry x="325" y="375" width="30" height="30" as="geometry" />
        </mxCell>
        <mxCell id="2E2zh2uSXz6sBKMin4p0-33" value="1" style="text;html=1;align=center;verticalAlign=middle;resizable=0;points=[];autosize=1;strokeColor=none;fillColor=none;" vertex="1" parent="1">
          <mxGeometry x="525" y="375" width="30" height="30" as="geometry" />
        </mxCell>
        <mxCell id="2E2zh2uSXz6sBKMin4p0-35" value="" style="endArrow=classic;html=1;rounded=0;entryX=-0.017;entryY=0.38;entryDx=0;entryDy=0;entryPerimeter=0;" edge="1" parent="1" target="2E2zh2uSXz6sBKMin4p0-12">
          <mxGeometry width="50" height="50" relative="1" as="geometry">
            <mxPoint x="50" y="320" as="sourcePoint" />
            <mxPoint x="100" y="270" as="targetPoint" />
          </mxGeometry>
        </mxCell>
        <mxCell id="2E2zh2uSXz6sBKMin4p0-36" value="1" style="text;html=1;align=center;verticalAlign=middle;resizable=0;points=[];autosize=1;strokeColor=none;fillColor=none;" vertex="1" parent="1">
          <mxGeometry x="95" y="285" width="30" height="30" as="geometry" />
        </mxCell>
        <mxCell id="2E2zh2uSXz6sBKMin4p0-37" value="Floor" style="swimlane;fontStyle=1;align=center;verticalAlign=top;childLayout=stackLayout;horizontal=1;startSize=26;horizontalStack=0;resizeParent=1;resizeParentMax=0;resizeLast=0;collapsible=1;marginBottom=0;" vertex="1" parent="1">
          <mxGeometry x="360" y="80" width="160" height="34" as="geometry" />
        </mxCell>
        <mxCell id="2E2zh2uSXz6sBKMin4p0-39" value="" style="line;strokeWidth=1;fillColor=none;align=left;verticalAlign=middle;spacingTop=-1;spacingLeft=3;spacingRight=3;rotatable=0;labelPosition=right;points=[];portConstraint=eastwest;" vertex="1" parent="2E2zh2uSXz6sBKMin4p0-37">
          <mxGeometry y="26" width="160" height="8" as="geometry" />
        </mxCell>
        <mxCell id="2E2zh2uSXz6sBKMin4p0-41" value="Call Button" style="swimlane;fontStyle=1;align=center;verticalAlign=top;childLayout=stackLayout;horizontal=1;startSize=26;horizontalStack=0;resizeParent=1;resizeParentMax=0;resizeLast=0;collapsible=1;marginBottom=0;" vertex="1" parent="1">
          <mxGeometry x="360" y="215" width="160" height="90" as="geometry" />
        </mxCell>
        <mxCell id="2E2zh2uSXz6sBKMin4p0-43" value="" style="line;strokeWidth=1;fillColor=none;align=left;verticalAlign=middle;spacingTop=-1;spacingLeft=3;spacingRight=3;rotatable=0;labelPosition=right;points=[];portConstraint=eastwest;" vertex="1" parent="2E2zh2uSXz6sBKMin4p0-41">
          <mxGeometry y="26" width="160" height="8" as="geometry" />
        </mxCell>
        <mxCell id="2E2zh2uSXz6sBKMin4p0-44" value="+ GoUp() : bool&#xa;+ GoDown() :bool" style="text;strokeColor=none;fillColor=none;align=left;verticalAlign=top;spacingLeft=4;spacingRight=4;overflow=hidden;rotatable=0;points=[[0,0.5],[1,0.5]];portConstraint=eastwest;" vertex="1" parent="2E2zh2uSXz6sBKMin4p0-41">
          <mxGeometry y="34" width="160" height="56" as="geometry" />
        </mxCell>
        <mxCell id="2E2zh2uSXz6sBKMin4p0-45" value="Target Button" style="swimlane;fontStyle=1;align=center;verticalAlign=top;childLayout=stackLayout;horizontal=1;startSize=26;horizontalStack=0;resizeParent=1;resizeParentMax=0;resizeLast=0;collapsible=1;marginBottom=0;" vertex="1" parent="1">
          <mxGeometry x="180" y="560" width="160" height="100" as="geometry" />
        </mxCell>
        <mxCell id="2E2zh2uSXz6sBKMin4p0-46" value="- TargetFloor : int" style="text;strokeColor=none;fillColor=none;align=left;verticalAlign=top;spacingLeft=4;spacingRight=4;overflow=hidden;rotatable=0;points=[[0,0.5],[1,0.5]];portConstraint=eastwest;" vertex="1" parent="2E2zh2uSXz6sBKMin4p0-45">
          <mxGeometry y="26" width="160" height="26" as="geometry" />
        </mxCell>
        <mxCell id="2E2zh2uSXz6sBKMin4p0-47" value="" style="line;strokeWidth=1;fillColor=none;align=left;verticalAlign=middle;spacingTop=-1;spacingLeft=3;spacingRight=3;rotatable=0;labelPosition=right;points=[];portConstraint=eastwest;" vertex="1" parent="2E2zh2uSXz6sBKMin4p0-45">
          <mxGeometry y="52" width="160" height="8" as="geometry" />
        </mxCell>
        <mxCell id="2E2zh2uSXz6sBKMin4p0-48" value="+ getTargetFloor() : int&#xa;+ setTargetFloor(): int" style="text;strokeColor=none;fillColor=none;align=left;verticalAlign=top;spacingLeft=4;spacingRight=4;overflow=hidden;rotatable=0;points=[[0,0.5],[1,0.5]];portConstraint=eastwest;" vertex="1" parent="2E2zh2uSXz6sBKMin4p0-45">
          <mxGeometry y="60" width="160" height="40" as="geometry" />
        </mxCell>
        <mxCell id="2E2zh2uSXz6sBKMin4p0-49" value="Open door" style="swimlane;fontStyle=1;align=center;verticalAlign=top;childLayout=stackLayout;horizontal=1;startSize=26;horizontalStack=0;resizeParent=1;resizeParentMax=0;resizeLast=0;collapsible=1;marginBottom=0;" vertex="1" parent="1">
          <mxGeometry x="380" y="560" width="190" height="60" as="geometry" />
        </mxCell>
        <mxCell id="2E2zh2uSXz6sBKMin4p0-51" value="" style="line;strokeWidth=1;fillColor=none;align=left;verticalAlign=middle;spacingTop=-1;spacingLeft=3;spacingRight=3;rotatable=0;labelPosition=right;points=[];portConstraint=eastwest;" vertex="1" parent="2E2zh2uSXz6sBKMin4p0-49">
          <mxGeometry y="26" width="190" height="8" as="geometry" />
        </mxCell>
        <mxCell id="2E2zh2uSXz6sBKMin4p0-52" value="+ OpenDoor(FloorNumber) : int" style="text;strokeColor=none;fillColor=none;align=left;verticalAlign=top;spacingLeft=4;spacingRight=4;overflow=hidden;rotatable=0;points=[[0,0.5],[1,0.5]];portConstraint=eastwest;" vertex="1" parent="2E2zh2uSXz6sBKMin4p0-49">
          <mxGeometry y="34" width="190" height="26" as="geometry" />
        </mxCell>
        <mxCell id="2E2zh2uSXz6sBKMin4p0-54" value="Close Door" style="swimlane;fontStyle=1;align=center;verticalAlign=top;childLayout=stackLayout;horizontal=1;startSize=26;horizontalStack=0;resizeParent=1;resizeParentMax=0;resizeLast=0;collapsible=1;marginBottom=0;" vertex="1" parent="1">
          <mxGeometry x="610" y="560" width="180" height="60" as="geometry" />
        </mxCell>
        <mxCell id="2E2zh2uSXz6sBKMin4p0-56" value="" style="line;strokeWidth=1;fillColor=none;align=left;verticalAlign=middle;spacingTop=-1;spacingLeft=3;spacingRight=3;rotatable=0;labelPosition=right;points=[];portConstraint=eastwest;" vertex="1" parent="2E2zh2uSXz6sBKMin4p0-54">
          <mxGeometry y="26" width="180" height="8" as="geometry" />
        </mxCell>
        <mxCell id="2E2zh2uSXz6sBKMin4p0-57" value="+ CloseDoor(FloorNumber: int" style="text;strokeColor=none;fillColor=none;align=left;verticalAlign=top;spacingLeft=4;spacingRight=4;overflow=hidden;rotatable=0;points=[[0,0.5],[1,0.5]];portConstraint=eastwest;" vertex="1" parent="2E2zh2uSXz6sBKMin4p0-54">
          <mxGeometry y="34" width="180" height="26" as="geometry" />
        </mxCell>
        <mxCell id="2E2zh2uSXz6sBKMin4p0-58" value="" style="endArrow=none;html=1;rounded=0;" edge="1" parent="1">
          <mxGeometry width="50" height="50" relative="1" as="geometry">
            <mxPoint x="260" y="560" as="sourcePoint" />
            <mxPoint x="260" y="520" as="targetPoint" />
          </mxGeometry>
        </mxCell>
        <mxCell id="2E2zh2uSXz6sBKMin4p0-59" value="" style="endArrow=none;html=1;rounded=0;" edge="1" parent="1">
          <mxGeometry width="50" height="50" relative="1" as="geometry">
            <mxPoint x="260" y="520" as="sourcePoint" />
            <mxPoint x="700" y="520" as="targetPoint" />
          </mxGeometry>
        </mxCell>
        <mxCell id="2E2zh2uSXz6sBKMin4p0-60" value="" style="endArrow=none;html=1;rounded=0;" edge="1" parent="1">
          <mxGeometry width="50" height="50" relative="1" as="geometry">
            <mxPoint x="700" y="560" as="sourcePoint" />
            <mxPoint x="700" y="520" as="targetPoint" />
          </mxGeometry>
        </mxCell>
        <mxCell id="2E2zh2uSXz6sBKMin4p0-61" value="" style="endArrow=none;html=1;rounded=0;" edge="1" parent="1">
          <mxGeometry width="50" height="50" relative="1" as="geometry">
            <mxPoint x="480" y="560" as="sourcePoint" />
            <mxPoint x="480" y="520" as="targetPoint" />
          </mxGeometry>
        </mxCell>
        <mxCell id="2E2zh2uSXz6sBKMin4p0-62" value="" style="endArrow=diamondThin;endFill=1;endSize=24;html=1;rounded=0;entryX=0.5;entryY=1;entryDx=0;entryDy=0;" edge="1" parent="1" target="2E2zh2uSXz6sBKMin4p0-24">
          <mxGeometry width="160" relative="1" as="geometry">
            <mxPoint x="480" y="520" as="sourcePoint" />
            <mxPoint x="640" y="520" as="targetPoint" />
            <Array as="points">
              <mxPoint x="480" y="480" />
              <mxPoint x="560" y="480" />
            </Array>
          </mxGeometry>
        </mxCell>
        <mxCell id="2E2zh2uSXz6sBKMin4p0-63" value="1" style="text;html=1;align=center;verticalAlign=middle;resizable=0;points=[];autosize=1;strokeColor=none;fillColor=none;" vertex="1" parent="1">
          <mxGeometry x="565" y="435" width="30" height="30" as="geometry" />
        </mxCell>
        <mxCell id="2E2zh2uSXz6sBKMin4p0-64" value="1" style="text;html=1;align=center;verticalAlign=middle;resizable=0;points=[];autosize=1;strokeColor=none;fillColor=none;" vertex="1" parent="1">
          <mxGeometry x="225" y="535" width="30" height="30" as="geometry" />
        </mxCell>
        <mxCell id="2E2zh2uSXz6sBKMin4p0-66" value="1" style="text;html=1;align=center;verticalAlign=middle;resizable=0;points=[];autosize=1;strokeColor=none;fillColor=none;" vertex="1" parent="1">
          <mxGeometry x="445" y="535" width="30" height="30" as="geometry" />
        </mxCell>
        <mxCell id="2E2zh2uSXz6sBKMin4p0-67" value="1" style="text;html=1;align=center;verticalAlign=middle;resizable=0;points=[];autosize=1;strokeColor=none;fillColor=none;" vertex="1" parent="1">
          <mxGeometry x="675" y="535" width="30" height="30" as="geometry" />
        </mxCell>
        <mxCell id="2E2zh2uSXz6sBKMin4p0-68" value="Floor Number" style="swimlane;fontStyle=1;align=center;verticalAlign=top;childLayout=stackLayout;horizontal=1;startSize=26;horizontalStack=0;resizeParent=1;resizeParentMax=0;resizeLast=0;collapsible=1;marginBottom=0;" vertex="1" parent="1">
          <mxGeometry x="175" y="720" width="160" height="90" as="geometry" />
        </mxCell>
        <mxCell id="2E2zh2uSXz6sBKMin4p0-70" value="" style="line;strokeWidth=1;fillColor=none;align=left;verticalAlign=middle;spacingTop=-1;spacingLeft=3;spacingRight=3;rotatable=0;labelPosition=right;points=[];portConstraint=eastwest;" vertex="1" parent="2E2zh2uSXz6sBKMin4p0-68">
          <mxGeometry y="26" width="160" height="8" as="geometry" />
        </mxCell>
        <mxCell id="2E2zh2uSXz6sBKMin4p0-71" value="+ getTargetFloor() : int&#xa;+ setTargetFloor() : int" style="text;strokeColor=none;fillColor=none;align=left;verticalAlign=top;spacingLeft=4;spacingRight=4;overflow=hidden;rotatable=0;points=[[0,0.5],[1,0.5]];portConstraint=eastwest;" vertex="1" parent="2E2zh2uSXz6sBKMin4p0-68">
          <mxGeometry y="34" width="160" height="56" as="geometry" />
        </mxCell>
        <mxCell id="2E2zh2uSXz6sBKMin4p0-72" value="" style="endArrow=none;html=1;rounded=0;" edge="1" parent="1">
          <mxGeometry width="50" height="50" relative="1" as="geometry">
            <mxPoint x="255" y="720" as="sourcePoint" />
            <mxPoint x="255" y="660" as="targetPoint" />
          </mxGeometry>
        </mxCell>
        <mxCell id="2E2zh2uSXz6sBKMin4p0-73" value="1" style="text;html=1;align=center;verticalAlign=middle;resizable=0;points=[];autosize=1;strokeColor=none;fillColor=none;" vertex="1" parent="1">
          <mxGeometry x="225" y="655" width="30" height="30" as="geometry" />
        </mxCell>
        <mxCell id="2E2zh2uSXz6sBKMin4p0-74" value="12" style="text;html=1;align=center;verticalAlign=middle;resizable=0;points=[];autosize=1;strokeColor=none;fillColor=none;" vertex="1" parent="1">
          <mxGeometry x="250" y="695" width="40" height="30" as="geometry" />
        </mxCell>
        <mxCell id="2E2zh2uSXz6sBKMin4p0-75" value="" style="endArrow=none;html=1;rounded=0;" edge="1" parent="1">
          <mxGeometry width="50" height="50" relative="1" as="geometry">
            <mxPoint x="120" y="695" as="sourcePoint" />
            <mxPoint x="720" y="695" as="targetPoint" />
          </mxGeometry>
        </mxCell>
        <mxCell id="2E2zh2uSXz6sBKMin4p0-76" value="" style="endArrow=none;html=1;rounded=0;" edge="1" parent="1">
          <mxGeometry width="50" height="50" relative="1" as="geometry">
            <mxPoint x="120" y="700" as="sourcePoint" />
            <mxPoint x="120" y="494" as="targetPoint" />
          </mxGeometry>
        </mxCell>
        <mxCell id="2E2zh2uSXz6sBKMin4p0-77" value="" style="endArrow=none;html=1;rounded=0;entryX=0.529;entryY=1.097;entryDx=0;entryDy=0;entryPerimeter=0;" edge="1" parent="1" target="2E2zh2uSXz6sBKMin4p0-52">
          <mxGeometry width="50" height="50" relative="1" as="geometry">
            <mxPoint x="480" y="695" as="sourcePoint" />
            <mxPoint x="530" y="645" as="targetPoint" />
          </mxGeometry>
        </mxCell>
        <mxCell id="2E2zh2uSXz6sBKMin4p0-78" value="" style="endArrow=none;html=1;rounded=0;entryX=0.614;entryY=1.123;entryDx=0;entryDy=0;entryPerimeter=0;" edge="1" parent="1" target="2E2zh2uSXz6sBKMin4p0-57">
          <mxGeometry width="50" height="50" relative="1" as="geometry">
            <mxPoint x="720" y="695" as="sourcePoint" />
            <mxPoint x="770" y="645" as="targetPoint" />
          </mxGeometry>
        </mxCell>
        <mxCell id="2E2zh2uSXz6sBKMin4p0-79" value="" style="endArrow=none;html=1;rounded=0;entryX=0;entryY=0.732;entryDx=0;entryDy=0;entryPerimeter=0;" edge="1" parent="1" target="2E2zh2uSXz6sBKMin4p0-44">
          <mxGeometry width="50" height="50" relative="1" as="geometry">
            <mxPoint x="300" y="290" as="sourcePoint" />
            <mxPoint x="350" y="240" as="targetPoint" />
          </mxGeometry>
        </mxCell>
        <mxCell id="2E2zh2uSXz6sBKMin4p0-80" value="" style="endArrow=none;html=1;rounded=0;" edge="1" parent="1">
          <mxGeometry width="50" height="50" relative="1" as="geometry">
            <mxPoint x="520" y="265" as="sourcePoint" />
            <mxPoint x="560" y="265" as="targetPoint" />
          </mxGeometry>
        </mxCell>
        <mxCell id="2E2zh2uSXz6sBKMin4p0-81" value="" style="endArrow=none;html=1;rounded=0;" edge="1" parent="1">
          <mxGeometry width="50" height="50" relative="1" as="geometry">
            <mxPoint x="560" y="265" as="sourcePoint" />
            <mxPoint x="560" y="160" as="targetPoint" />
          </mxGeometry>
        </mxCell>
        <mxCell id="2E2zh2uSXz6sBKMin4p0-82" value="" style="endArrow=none;html=1;rounded=0;" edge="1" parent="1">
          <mxGeometry width="50" height="50" relative="1" as="geometry">
            <mxPoint x="440" y="160" as="sourcePoint" />
            <mxPoint x="560" y="160" as="targetPoint" />
          </mxGeometry>
        </mxCell>
        <mxCell id="2E2zh2uSXz6sBKMin4p0-83" value="" style="endArrow=classic;html=1;rounded=0;entryX=0.5;entryY=1;entryDx=0;entryDy=0;" edge="1" parent="1" target="2E2zh2uSXz6sBKMin4p0-37">
          <mxGeometry width="50" height="50" relative="1" as="geometry">
            <mxPoint x="440" y="160" as="sourcePoint" />
            <mxPoint x="490" y="110" as="targetPoint" />
          </mxGeometry>
        </mxCell>
        <mxCell id="2E2zh2uSXz6sBKMin4p0-84" value="1" style="text;html=1;align=center;verticalAlign=middle;resizable=0;points=[];autosize=1;strokeColor=none;fillColor=none;" vertex="1" parent="1">
          <mxGeometry x="415" y="105" width="30" height="30" as="geometry" />
        </mxCell>
        <mxCell id="2E2zh2uSXz6sBKMin4p0-85" value="3" style="text;html=1;align=center;verticalAlign=middle;resizable=0;points=[];autosize=1;strokeColor=none;fillColor=none;" vertex="1" parent="1">
          <mxGeometry x="515" y="265" width="30" height="30" as="geometry" />
        </mxCell>
        <mxCell id="2E2zh2uSXz6sBKMin4p0-86" value="" style="endArrow=classic;html=1;rounded=0;entryX=1.01;entryY=0.625;entryDx=0;entryDy=0;entryPerimeter=0;exitX=0;exitY=0.75;exitDx=0;exitDy=0;" edge="1" parent="1" source="2E2zh2uSXz6sBKMin4p0-37" target="2E2zh2uSXz6sBKMin4p0-2">
          <mxGeometry width="50" height="50" relative="1" as="geometry">
            <mxPoint x="355" y="105" as="sourcePoint" />
            <mxPoint x="405" y="55" as="targetPoint" />
          </mxGeometry>
        </mxCell>
        <mxCell id="2E2zh2uSXz6sBKMin4p0-87" value="1" style="text;html=1;align=center;verticalAlign=middle;resizable=0;points=[];autosize=1;strokeColor=none;fillColor=none;" vertex="1" parent="1">
          <mxGeometry x="275" y="75" width="30" height="30" as="geometry" />
        </mxCell>
        <mxCell id="2E2zh2uSXz6sBKMin4p0-88" value="12" style="text;html=1;align=center;verticalAlign=middle;resizable=0;points=[];autosize=1;strokeColor=none;fillColor=none;" vertex="1" parent="1">
          <mxGeometry x="330" y="105" width="40" height="30" as="geometry" />
        </mxCell>
        <mxCell id="2E2zh2uSXz6sBKMin4p0-89" value="Elevator Shaft" style="swimlane;fontStyle=1;align=center;verticalAlign=top;childLayout=stackLayout;horizontal=1;startSize=26;horizontalStack=0;resizeParent=1;resizeParentMax=0;resizeLast=0;collapsible=1;marginBottom=0;" vertex="1" parent="1">
          <mxGeometry x="600" y="219" width="160" height="34" as="geometry" />
        </mxCell>
        <mxCell id="2E2zh2uSXz6sBKMin4p0-91" value="" style="line;strokeWidth=1;fillColor=none;align=left;verticalAlign=middle;spacingTop=-1;spacingLeft=3;spacingRight=3;rotatable=0;labelPosition=right;points=[];portConstraint=eastwest;" vertex="1" parent="2E2zh2uSXz6sBKMin4p0-89">
          <mxGeometry y="26" width="160" height="8" as="geometry" />
        </mxCell>
        <mxCell id="2E2zh2uSXz6sBKMin4p0-93" value="" style="endArrow=none;html=1;rounded=0;exitX=0.469;exitY=1.036;exitDx=0;exitDy=0;exitPerimeter=0;" edge="1" parent="1" source="2E2zh2uSXz6sBKMin4p0-44">
          <mxGeometry width="50" height="50" relative="1" as="geometry">
            <mxPoint x="590" y="290" as="sourcePoint" />
            <mxPoint x="600" y="240" as="targetPoint" />
            <Array as="points">
              <mxPoint x="435" y="320" />
              <mxPoint x="580" y="320" />
              <mxPoint x="580" y="240" />
            </Array>
          </mxGeometry>
        </mxCell>
        <mxCell id="2E2zh2uSXz6sBKMin4p0-94" value="1" style="text;html=1;align=center;verticalAlign=middle;resizable=0;points=[];autosize=1;strokeColor=none;fillColor=none;" vertex="1" parent="1">
          <mxGeometry x="615" y="215" width="30" height="30" as="geometry" />
        </mxCell>
        <mxCell id="2E2zh2uSXz6sBKMin4p0-95" value="1" style="text;html=1;align=center;verticalAlign=middle;resizable=0;points=[];autosize=1;strokeColor=none;fillColor=none;" vertex="1" parent="1">
          <mxGeometry x="415" y="295" width="30" height="30" as="geometry" />
        </mxCell>
        <mxCell id="2E2zh2uSXz6sBKMin4p0-97" value="Elevator Shaft Door" style="swimlane;fontStyle=1;align=center;verticalAlign=top;childLayout=stackLayout;horizontal=1;startSize=26;horizontalStack=0;resizeParent=1;resizeParentMax=0;resizeLast=0;collapsible=1;marginBottom=0;" vertex="1" parent="1">
          <mxGeometry x="680" y="68" width="190" height="94" as="geometry" />
        </mxCell>
        <mxCell id="2E2zh2uSXz6sBKMin4p0-99" value="" style="line;strokeWidth=1;fillColor=none;align=left;verticalAlign=middle;spacingTop=-1;spacingLeft=3;spacingRight=3;rotatable=0;labelPosition=right;points=[];portConstraint=eastwest;" vertex="1" parent="2E2zh2uSXz6sBKMin4p0-97">
          <mxGeometry y="26" width="190" height="8" as="geometry" />
        </mxCell>
        <mxCell id="2E2zh2uSXz6sBKMin4p0-100" value="+ OpenDoors(DoorsTime) : bool&#xa;+ CloseDoors(DoorsTime) : bool" style="text;strokeColor=none;fillColor=none;align=left;verticalAlign=top;spacingLeft=4;spacingRight=4;overflow=hidden;rotatable=0;points=[[0,0.5],[1,0.5]];portConstraint=eastwest;" vertex="1" parent="2E2zh2uSXz6sBKMin4p0-97">
          <mxGeometry y="34" width="190" height="60" as="geometry" />
        </mxCell>
        <mxCell id="2E2zh2uSXz6sBKMin4p0-101" value="" style="endArrow=classic;html=1;rounded=0;entryX=0.75;entryY=0;entryDx=0;entryDy=0;" edge="1" parent="2E2zh2uSXz6sBKMin4p0-97" target="2E2zh2uSXz6sBKMin4p0-89">
          <mxGeometry width="50" height="50" relative="1" as="geometry">
            <mxPoint x="40" y="94" as="sourcePoint" />
            <mxPoint x="90" y="44" as="targetPoint" />
          </mxGeometry>
        </mxCell>
        <mxCell id="2E2zh2uSXz6sBKMin4p0-102" value="1" style="text;html=1;align=center;verticalAlign=middle;resizable=0;points=[];autosize=1;strokeColor=none;fillColor=none;" vertex="1" parent="1">
          <mxGeometry x="695" y="155" width="30" height="30" as="geometry" />
        </mxCell>
        <mxCell id="2E2zh2uSXz6sBKMin4p0-103" value="1" style="text;html=1;align=center;verticalAlign=middle;resizable=0;points=[];autosize=1;strokeColor=none;fillColor=none;" vertex="1" parent="1">
          <mxGeometry x="725" y="195" width="30" height="30" as="geometry" />
        </mxCell>
        <mxCell id="2E2zh2uSXz6sBKMin4p0-104" value="Arrival Bell" style="swimlane;fontStyle=1;align=center;verticalAlign=top;childLayout=stackLayout;horizontal=1;startSize=26;horizontalStack=0;resizeParent=1;resizeParentMax=0;resizeLast=0;collapsible=1;marginBottom=0;" vertex="1" parent="1">
          <mxGeometry x="940" y="80" width="160" height="110" as="geometry" />
        </mxCell>
        <mxCell id="2E2zh2uSXz6sBKMin4p0-105" value="+ FloorNumber : int" style="text;strokeColor=none;fillColor=none;align=left;verticalAlign=top;spacingLeft=4;spacingRight=4;overflow=hidden;rotatable=0;points=[[0,0.5],[1,0.5]];portConstraint=eastwest;" vertex="1" parent="2E2zh2uSXz6sBKMin4p0-104">
          <mxGeometry y="26" width="160" height="26" as="geometry" />
        </mxCell>
        <mxCell id="2E2zh2uSXz6sBKMin4p0-106" value="" style="line;strokeWidth=1;fillColor=none;align=left;verticalAlign=middle;spacingTop=-1;spacingLeft=3;spacingRight=3;rotatable=0;labelPosition=right;points=[];portConstraint=eastwest;" vertex="1" parent="2E2zh2uSXz6sBKMin4p0-104">
          <mxGeometry y="52" width="160" height="8" as="geometry" />
        </mxCell>
        <mxCell id="2E2zh2uSXz6sBKMin4p0-107" value="+ IsCome(TargetFloor) : int&#xa;+ getTargetFloor() : int" style="text;strokeColor=none;fillColor=none;align=left;verticalAlign=top;spacingLeft=4;spacingRight=4;overflow=hidden;rotatable=0;points=[[0,0.5],[1,0.5]];portConstraint=eastwest;" vertex="1" parent="2E2zh2uSXz6sBKMin4p0-104">
          <mxGeometry y="60" width="160" height="50" as="geometry" />
        </mxCell>
        <mxCell id="2E2zh2uSXz6sBKMin4p0-108" value="Signal Light" style="swimlane;fontStyle=1;align=center;verticalAlign=top;childLayout=stackLayout;horizontal=1;startSize=26;horizontalStack=0;resizeParent=1;resizeParentMax=0;resizeLast=0;collapsible=1;marginBottom=0;" vertex="1" parent="1">
          <mxGeometry x="940" y="240" width="160" height="150" as="geometry" />
        </mxCell>
        <mxCell id="2E2zh2uSXz6sBKMin4p0-109" value="+ FloorNumber : int" style="text;strokeColor=none;fillColor=none;align=left;verticalAlign=top;spacingLeft=4;spacingRight=4;overflow=hidden;rotatable=0;points=[[0,0.5],[1,0.5]];portConstraint=eastwest;" vertex="1" parent="2E2zh2uSXz6sBKMin4p0-108">
          <mxGeometry y="26" width="160" height="26" as="geometry" />
        </mxCell>
        <mxCell id="2E2zh2uSXz6sBKMin4p0-110" value="" style="line;strokeWidth=1;fillColor=none;align=left;verticalAlign=middle;spacingTop=-1;spacingLeft=3;spacingRight=3;rotatable=0;labelPosition=right;points=[];portConstraint=eastwest;" vertex="1" parent="2E2zh2uSXz6sBKMin4p0-108">
          <mxGeometry y="52" width="160" height="8" as="geometry" />
        </mxCell>
        <mxCell id="2E2zh2uSXz6sBKMin4p0-111" value="- IsUp() : bool&#xa;- IsDown() : bool&#xa;- IsCome() : bool" style="text;strokeColor=none;fillColor=none;align=left;verticalAlign=top;spacingLeft=4;spacingRight=4;overflow=hidden;rotatable=0;points=[[0,0.5],[1,0.5]];portConstraint=eastwest;" vertex="1" parent="2E2zh2uSXz6sBKMin4p0-108">
          <mxGeometry y="60" width="160" height="90" as="geometry" />
        </mxCell>
        <mxCell id="2E2zh2uSXz6sBKMin4p0-112" value="" style="endArrow=none;html=1;rounded=0;exitX=-0.012;exitY=0.422;exitDx=0;exitDy=0;exitPerimeter=0;" edge="1" parent="1" source="2E2zh2uSXz6sBKMin4p0-111">
          <mxGeometry width="50" height="50" relative="1" as="geometry">
            <mxPoint x="285" y="340" as="sourcePoint" />
            <mxPoint x="335" y="290" as="targetPoint" />
            <Array as="points">
              <mxPoint x="335" y="340" />
            </Array>
          </mxGeometry>
        </mxCell>
        <mxCell id="2E2zh2uSXz6sBKMin4p0-114" value="" style="endArrow=diamondThin;endFill=1;endSize=24;html=1;rounded=0;" edge="1" parent="1">
          <mxGeometry width="160" relative="1" as="geometry">
            <mxPoint x="940" y="134" as="sourcePoint" />
            <mxPoint x="890" y="134" as="targetPoint" />
            <Array as="points">
              <mxPoint x="890" y="134" />
              <mxPoint x="880" y="134" />
            </Array>
          </mxGeometry>
        </mxCell>
        <mxCell id="2E2zh2uSXz6sBKMin4p0-115" value="" style="endArrow=none;html=1;rounded=0;" edge="1" parent="1">
          <mxGeometry width="50" height="50" relative="1" as="geometry">
            <mxPoint x="910" y="290" as="sourcePoint" />
            <mxPoint x="910" y="135" as="targetPoint" />
          </mxGeometry>
        </mxCell>
        <mxCell id="2E2zh2uSXz6sBKMin4p0-116" value="" style="endArrow=none;html=1;rounded=0;" edge="1" parent="1">
          <mxGeometry width="50" height="50" relative="1" as="geometry">
            <mxPoint x="910" y="290" as="sourcePoint" />
            <mxPoint x="940" y="290" as="targetPoint" />
          </mxGeometry>
        </mxCell>
        <mxCell id="2E2zh2uSXz6sBKMin4p0-117" value="1" style="text;html=1;align=center;verticalAlign=middle;resizable=0;points=[];autosize=1;strokeColor=none;fillColor=none;" vertex="1" parent="1">
          <mxGeometry x="915" y="105" width="30" height="30" as="geometry" />
        </mxCell>
        <mxCell id="2E2zh2uSXz6sBKMin4p0-118" value="1" style="text;html=1;align=center;verticalAlign=middle;resizable=0;points=[];autosize=1;strokeColor=none;fillColor=none;" vertex="1" parent="1">
          <mxGeometry x="915" y="285" width="30" height="30" as="geometry" />
        </mxCell>
        <mxCell id="2E2zh2uSXz6sBKMin4p0-119" value="1" style="text;html=1;align=center;verticalAlign=middle;resizable=0;points=[];autosize=1;strokeColor=none;fillColor=none;" vertex="1" parent="1">
          <mxGeometry x="865" y="105" width="30" height="30" as="geometry" />
        </mxCell>
      </root>
    </mxGraphModel>
  </diagram>
</mxfile>
